<svg width="216" height="216" xmlns="http://www.w3.org/2000/svg" xmlns:xlink="http://www.w3.org/1999/xlink" xml:space="preserve" overflow="hidden"><defs><clipPath id="clip0"><rect x="575" y="276" width="216" height="216"/></clipPath></defs><g clip-path="url(#clip0)" transform="translate(-575 -276)"><path d="M726.946 342.329 708.567 428.765C707.657 433.041 702.562 434.952 699.013 432.404L655.249 399.832 703.563 356.158C703.563 356.158 706.838 353.52 705.928 352.701 704.928 351.7 701.379 353.884 699.468 355.158 697.649 356.431 640.328 392.644 640.328 392.644L611.394 383.545C608.119 382.544 608.119 378.086 612.85 376.084L719.667 334.959C724.217 332.684 727.947 337.961 726.946 342.329Z"/><path d="M683 492C623.495 492 575 443.596 575 384 575 324.495 623.495 276 683 276 742.596 276 791 324.495 791 384 791 443.596 742.596 492 683 492ZM683 281.914C626.68 281.914 580.914 327.68 580.914 384 580.914 440.32 626.68 486.086 683 486.086 739.32 486.086 785.086 440.32 785.086 384 785.086 327.68 739.32 281.914 683 281.914Z"/></g></svg>