<svg xmlns="http://www.w3.org/2000/svg" xmlns:xlink="http://www.w3.org/1999/xlink" width="250" zoomAndPan="magnify" viewBox="0 0 187.5 187.499992" height="250" preserveAspectRatio="xMidYMid meet" version="1.0"><defs><clipPath id="ed89ed9689"><path d="M 9.527344 9.527344 L 178.277344 9.527344 L 178.277344 175 L 9.527344 175 Z M 9.527344 9.527344 " clip-rule="nonzero"/></clipPath></defs><g clip-path="url(#ed89ed9689)"><path fill="#ffffff" d="M 93.902344 9.527344 C 47.3125 9.527344 9.527344 47.304688 9.527344 93.902344 C 9.527344 131.179688 33.699219 162.808594 67.230469 173.964844 C 71.445312 174.746094 72.808594 172.132812 72.808594 169.910156 L 72.808594 154.203125 C 49.335938 159.304688 44.449219 144.246094 44.449219 144.246094 C 40.613281 134.492188 35.078125 131.898438 35.078125 131.898438 C 27.421875 126.660156 35.660156 126.773438 35.660156 126.773438 C 44.132812 127.363281 48.59375 135.46875 48.59375 135.46875 C 56.117188 148.367188 68.328125 144.640625 73.144531 142.480469 C 73.898438 137.03125 76.085938 133.304688 78.503906 131.203125 C 59.765625 129.058594 40.0625 121.824219 40.0625 89.5 C 40.0625 80.28125 43.359375 72.757812 48.753906 66.851562 C 47.882812 64.722656 44.992188 56.136719 49.578125 44.519531 C 49.578125 44.519531 56.664062 42.257812 72.785156 53.167969 C 79.515625 51.300781 86.730469 50.363281 93.902344 50.328125 C 101.074219 50.363281 108.292969 51.300781 115.039062 53.167969 C 131.144531 42.257812 138.21875 44.519531 138.21875 44.519531 C 142.8125 56.144531 139.921875 64.730469 139.050781 66.851562 C 144.464844 72.757812 147.734375 80.289062 147.734375 89.5 C 147.734375 121.90625 127.996094 129.042969 109.207031 131.132812 C 112.230469 133.746094 114.996094 138.878906 114.996094 146.753906 L 114.996094 169.910156 C 114.996094 172.152344 116.34375 174.789062 120.628906 173.960938 C 154.132812 162.785156 178.277344 131.167969 178.277344 93.902344 C 178.277344 47.304688 140.496094 9.527344 93.902344 9.527344 Z M 93.902344 9.527344 " fill-opacity="1" fill-rule="nonzero"/></g></svg>