<svg xmlns="http://www.w3.org/2000/svg" xmlns:xlink="http://www.w3.org/1999/xlink" width="250" zoomAndPan="magnify" viewBox="0 0 187.5 187.499992" height="250" preserveAspectRatio="xMidYMid meet" version="1.0"><defs><clipPath id="ab306b5bc3"><path d="M 8.917969 7.097656 L 180.667969 7.097656 L 180.667969 178.847656 L 8.917969 178.847656 Z M 8.917969 7.097656 " clip-rule="nonzero"/></clipPath></defs><g clip-path="url(#ab306b5bc3)"><path fill="#ffffff" d="M 94.792969 7.097656 C 142.222656 7.097656 180.671875 45.546875 180.671875 92.972656 C 180.671875 140.402344 142.222656 178.851562 94.792969 178.851562 C 47.367188 178.851562 8.917969 140.402344 8.917969 92.972656 C 8.917969 45.546875 47.367188 7.097656 94.792969 7.097656 Z M 59.40625 129.929688 L 71.507812 129.929688 L 71.507812 81.976562 L 59.40625 81.976562 Z M 97.199219 104.660156 C 97.199219 97.097656 100.761719 91.03125 108.96875 91.03125 C 117.074219 91.03125 119.699219 97.566406 119.699219 104.660156 L 119.699219 129.933594 L 131.730469 129.933594 L 131.730469 99.042969 C 131.730469 88.070312 126.414062 80.394531 114.820312 80.394531 C 109.5625 80.394531 103.484375 83.152344 100.914062 87.941406 L 97.199219 94.714844 L 97.199219 81.976562 L 85.746094 81.976562 L 85.746094 129.929688 L 97.199219 129.929688 Z M 101.160156 104.660156 L 101.160156 133.890625 L 81.78125 133.890625 L 81.78125 78.015625 L 101.160156 78.015625 L 101.160156 81.582031 C 104.984375 78.15625 109.683594 76.429688 114.820312 76.429688 C 128.601562 76.429688 135.691406 85.875 135.691406 99.042969 L 135.691406 133.882812 L 115.734375 133.886719 L 115.734375 104.660156 C 115.734375 99.894531 114.683594 94.996094 108.96875 94.996094 C 103.011719 94.996094 101.160156 99.328125 101.160156 104.660156 Z M 65.382812 71.21875 C 69.578125 71.21875 72.902344 67.789062 72.902344 63.617188 C 72.902344 59.445312 69.578125 56.019531 65.382812 56.019531 C 61.1875 56.019531 57.859375 59.445312 57.859375 63.617188 C 57.859375 67.789062 61.183594 71.21875 65.382812 71.21875 Z M 65.382812 75.183594 C 59.015625 75.183594 53.898438 69.960938 53.898438 63.617188 C 53.898438 57.273438 59.015625 52.058594 65.382812 52.058594 C 71.742188 52.058594 76.863281 57.273438 76.863281 63.617188 C 76.863281 69.957031 71.742188 75.183594 65.382812 75.183594 Z M 55.441406 133.890625 L 55.441406 78.015625 L 75.472656 78.015625 L 75.472656 133.890625 Z M 94.792969 11.0625 C 49.554688 11.0625 12.878906 47.734375 12.878906 92.972656 C 12.878906 138.214844 49.554688 174.886719 94.792969 174.886719 C 140.035156 174.886719 176.710938 138.214844 176.710938 92.972656 C 176.710938 47.734375 140.035156 11.0625 94.792969 11.0625 Z M 94.792969 11.0625 " fill-opacity="1" fill-rule="nonzero"/></g></svg>