<svg xmlns="http://www.w3.org/2000/svg" xmlns:xlink="http://www.w3.org/1999/xlink" width="250" zoomAndPan="magnify" viewBox="0 0 187.5 187.499992" height="250" preserveAspectRatio="xMidYMid meet" version="1.0"><defs><clipPath id="354daba6fc"><path d="M 11.652344 11.652344 L 175.902344 11.652344 L 175.902344 175.902344 L 11.652344 175.902344 Z M 11.652344 11.652344 " clip-rule="nonzero"/></clipPath></defs><path fill="#ffffff" d="M 127.191406 62.089844 L 113.21875 127.816406 C 112.523438 131.066406 108.652344 132.519531 105.953125 130.582031 L 72.671875 105.816406 L 109.410156 72.605469 C 109.410156 72.605469 111.902344 70.597656 111.210938 69.976562 C 110.449219 69.214844 107.75 70.875 106.296875 71.84375 C 104.914062 72.8125 61.328125 100.347656 61.328125 100.347656 L 39.324219 93.429688 C 36.835938 92.667969 36.835938 89.277344 40.433594 87.757812 L 121.65625 56.484375 C 125.117188 54.753906 127.953125 58.765625 127.191406 62.089844 Z M 127.191406 62.089844 " fill-opacity="1" fill-rule="nonzero"/><g clip-path="url(#354daba6fc)"><path fill="#ffffff" d="M 93.777344 175.902344 C 48.527344 175.902344 11.652344 139.09375 11.652344 93.777344 C 11.652344 48.527344 48.527344 11.652344 93.777344 11.652344 C 139.09375 11.652344 175.902344 48.527344 175.902344 93.777344 C 175.902344 139.09375 139.09375 175.902344 93.777344 175.902344 Z M 93.777344 16.148438 C 50.949219 16.148438 16.148438 50.949219 16.148438 93.777344 C 16.148438 136.601562 50.949219 171.402344 93.777344 171.402344 C 136.601562 171.402344 171.402344 136.601562 171.402344 93.777344 C 171.402344 50.949219 136.601562 16.148438 93.777344 16.148438 Z M 93.777344 16.148438 " fill-opacity="1" fill-rule="nonzero"/></g></svg>