<svg width="216" height="216" xmlns="http://www.w3.org/2000/svg" xmlns:xlink="http://www.w3.org/1999/xlink" xml:space="preserve" overflow="hidden"><defs><clipPath id="clip0"><rect x="575" y="276" width="216" height="216"/></clipPath></defs><g clip-path="url(#clip0)" transform="translate(-575 -276)"><path d="M683 276C623.366 276 575 324.357 575 384 575 431.718 605.942 472.2 648.863 486.483 654.254 487.482 656 484.134 656 481.29L656 461.184C625.958 467.718 619.703 448.44 619.703 448.44 614.789 435.957 607.706 432.636 607.706 432.636 597.905 425.931 608.453 426.075 608.453 426.075 619.298 426.831 625.004 437.208 625.004 437.208 634.634 453.714 650.267 448.944 656.432 446.181 657.395 439.206 660.194 434.436 663.29 431.745 639.305 429 614.087 419.739 614.087 378.366 614.087 366.567 618.308 356.937 625.211 349.377 624.095 346.65 620.396 335.661 626.264 320.793 626.264 320.793 635.336 317.895 655.973 331.863 664.586 329.469 673.82 328.272 683 328.227 692.18 328.272 701.423 329.469 710.054 331.863 730.673 317.895 739.727 320.793 739.727 320.793 745.604 335.67 741.905 346.659 740.789 349.377 747.719 356.937 751.904 366.576 751.904 378.366 751.904 419.847 726.641 428.982 702.593 431.655 706.463 435.003 710 441.573 710 451.653L710 481.29C710 484.161 711.728 487.536 717.209 486.474 760.094 472.173 791 431.7 791 384 791 324.357 742.643 276 683 276Z"/></g></svg>