<svg width="216" height="216" xmlns="http://www.w3.org/2000/svg" xmlns:xlink="http://www.w3.org/1999/xlink" xml:space="preserve" overflow="hidden"><defs><clipPath id="clip0"><rect x="575" y="276" width="216" height="216"/></clipPath></defs><g clip-path="url(#clip0)" transform="translate(-575 -276)"><path d="M683 275.996C742.647 275.996 791.004 324.353 791.004 384 791.004 443.647 742.647 492.004 683 492.004 623.353 492.004 574.996 443.647 574.996 384 574.996 324.353 623.353 275.996 683 275.996ZM638.492 430.475 653.715 430.475 653.715 370.17 638.492 370.17 638.492 430.475ZM686.022 398.695C686.022 389.183 690.504 381.556 700.827 381.556 711.019 381.556 714.32 389.773 714.32 398.695L714.32 430.483 729.45 430.483 729.45 391.63C729.45 377.83 722.765 368.178 708.187 368.178 701.57 368.178 693.927 371.647 690.694 377.669L686.022 386.19 686.022 370.17 671.618 370.17 671.618 430.475 686.022 430.475 686.022 398.695ZM691.006 398.695 691.006 435.459 666.633 435.459 666.633 365.185 691.006 365.185 691.006 369.672C695.817 365.363 701.726 363.193 708.187 363.193 725.516 363.193 734.434 375.07 734.434 391.63L734.434 435.447 709.335 435.451 709.335 398.695C709.335 392.702 708.014 386.541 700.827 386.541 693.332 386.541 691.006 391.993 691.006 398.695ZM646.008 356.639C651.284 356.639 655.466 352.326 655.466 347.08 655.466 341.83 651.284 337.525 646.008 337.525 640.733 337.525 636.55 341.83 636.55 347.08 636.55 352.326 640.729 356.639 646.008 356.639ZM646.008 361.623C638.002 361.623 631.566 355.057 631.566 347.08 631.566 339.103 638.002 332.541 646.008 332.541 654.01 332.541 660.45 339.103 660.45 347.08 660.45 355.052 654.01 361.623 646.008 361.623ZM633.507 435.459 633.507 365.185 658.699 365.185 658.699 435.459 633.507 435.459ZM683 280.984C626.105 280.984 579.98 327.105 579.98 384 579.98 440.895 626.105 487.016 683 487.016 739.895 487.016 786.02 440.895 786.02 384 786.02 327.105 739.895 280.984 683 280.984Z"/></g></svg>